<svg xmlns="http://www.w3.org/2000/svg" xmlns:xlink="http://www.w3.org/1999/xlink" width="8000" zoomAndPan="magnify" viewBox="0 0 6000 2250.000011" height="3000" preserveAspectRatio="xMidYMid meet" version="1.0"><defs><g/></defs><g fill="#ffffff" fill-opacity="1"><g transform="translate(249.18652, 1476.661306)"><g><path d="M 168.828125 -770.78125 C 190.949219 -770.78125 213.070312 -770.78125 236.355469 -770.78125 C 238.6875 -770.78125 241.015625 -770.78125 243.34375 -769.617188 C 254.984375 -766.121094 265.464844 -753.316406 265.464844 -740.507812 C 265.464844 -727.699219 265.464844 -714.890625 265.464844 -702.085938 C 265.464844 -684.621094 265.464844 -668.320312 266.628906 -652.019531 C 266.628906 -634.554688 266.628906 -617.089844 266.628906 -598.460938 C 266.628906 -476.207031 265.464844 -352.789062 265.464844 -230.535156 C 265.464844 -223.550781 265.464844 -216.5625 264.300781 -209.578125 C 263.136719 -197.933594 263.136719 -187.457031 263.136719 -176.976562 C 261.972656 -143.210938 260.808594 -108.28125 259.644531 -74.515625 C 259.644531 -71.023438 259.644531 -67.53125 258.480469 -64.039062 C 256.148438 -54.722656 252.65625 -46.574219 243.34375 -40.75 C 239.851562 -38.421875 235.191406 -36.09375 230.535156 -34.929688 C 222.386719 -32.601562 213.070312 -29.109375 203.757812 -26.78125 C 194.441406 -23.285156 186.292969 -20.957031 176.976562 -17.464844 C 173.484375 -16.300781 171.15625 -13.972656 168.828125 -10.480469 C 166.496094 -6.984375 168.828125 0 173.484375 0 C 176.976562 1.164062 180.46875 2.328125 183.960938 2.328125 C 281.765625 1.164062 379.566406 1.164062 477.371094 0 C 480.863281 0 484.355469 0 487.851562 0 C 492.507812 -1.164062 497.164062 -2.328125 501.820312 -3.492188 C 502.984375 -4.65625 504.152344 -4.65625 505.316406 -5.820312 C 506.480469 -6.984375 507.644531 -9.316406 508.808594 -11.644531 C 509.972656 -12.808594 506.480469 -19.792969 504.152344 -19.792969 C 497.164062 -22.121094 490.179688 -24.449219 483.191406 -25.613281 C 470.386719 -27.945312 458.742188 -33.765625 447.097656 -38.421875 C 443.605469 -40.75 441.277344 -41.914062 437.785156 -44.246094 C 433.128906 -48.902344 429.632812 -53.558594 429.632812 -59.378906 C 429.632812 -90.816406 428.46875 -121.089844 428.46875 -151.363281 C 430.796875 -221.222656 431.960938 -291.078125 430.796875 -360.9375 C 430.796875 -455.25 430.796875 -549.558594 430.796875 -645.03125 C 430.796875 -661.332031 430.796875 -677.632812 431.960938 -693.933594 C 431.960938 -723.042969 431.960938 -723.042969 437.785156 -750.984375 C 438.949219 -757.972656 444.769531 -762.628906 451.757812 -764.957031 C 454.085938 -764.957031 456.414062 -766.121094 458.742188 -766.121094 C 462.234375 -766.121094 465.726562 -766.121094 469.222656 -766.121094 C 489.015625 -766.121094 509.972656 -764.957031 529.765625 -764.957031 C 535.585938 -764.957031 541.410156 -762.628906 547.230469 -761.464844 C 556.542969 -759.136719 564.695312 -755.644531 572.84375 -750.984375 C 576.339844 -749.820312 579.832031 -747.492188 582.160156 -746.328125 C 594.96875 -737.015625 605.445312 -725.371094 613.597656 -711.398438 C 615.925781 -705.578125 619.417969 -699.757812 622.910156 -692.769531 C 629.898438 -681.128906 634.554688 -667.15625 638.046875 -653.183594 C 639.210938 -642.703125 642.703125 -633.390625 646.199219 -622.910156 C 646.199219 -621.746094 647.363281 -620.582031 648.527344 -620.582031 C 649.691406 -618.253906 652.019531 -617.089844 654.347656 -617.089844 C 655.511719 -615.925781 656.675781 -615.925781 657.839844 -615.925781 C 665.992188 -615.925781 671.8125 -620.582031 671.8125 -627.570312 C 672.976562 -645.03125 670.648438 -661.332031 668.320312 -677.632812 C 667.15625 -688.113281 665.992188 -698.59375 665.992188 -709.070312 C 664.828125 -730.027344 663.664062 -752.152344 663.664062 -773.109375 C 662.496094 -780.09375 662.496094 -787.082031 662.496094 -794.066406 C 661.332031 -798.722656 660.167969 -803.378906 657.839844 -808.039062 C 655.511719 -811.53125 653.183594 -812.695312 649.691406 -813.859375 C 645.03125 -815.023438 640.375 -815.023438 635.71875 -815.023438 C 617.089844 -816.1875 597.296875 -816.1875 578.667969 -816.1875 C 472.714844 -815.023438 366.761719 -815.023438 259.644531 -815.023438 C 203.757812 -815.023438 149.03125 -815.023438 93.144531 -813.859375 C 82.667969 -813.859375 72.1875 -813.859375 61.707031 -813.859375 C 57.050781 -812.695312 52.394531 -811.53125 47.738281 -809.203125 C 44.246094 -806.875 40.75 -801.050781 40.75 -797.558594 C 39.585938 -794.066406 39.585938 -790.574219 39.585938 -787.082031 C 38.421875 -773.109375 38.421875 -759.136719 36.09375 -744 C 34.929688 -737.015625 34.929688 -730.027344 34.929688 -723.042969 C 33.765625 -710.234375 33.765625 -697.425781 32.601562 -684.621094 C 32.601562 -669.484375 32.601562 -653.183594 27.945312 -639.210938 C 26.78125 -634.554688 27.945312 -629.898438 29.109375 -625.238281 C 32.601562 -615.925781 41.914062 -613.597656 50.066406 -618.253906 C 51.230469 -618.253906 52.394531 -619.417969 52.394531 -620.582031 C 57.050781 -627.570312 60.542969 -635.71875 60.542969 -643.867188 C 62.875 -661.332031 69.859375 -677.632812 78.007812 -693.933594 C 82.667969 -702.085938 87.324219 -710.234375 91.980469 -718.386719 C 96.636719 -725.371094 101.296875 -731.191406 107.117188 -737.015625 C 112.9375 -741.671875 117.597656 -746.328125 123.417969 -750.984375 C 131.566406 -757.972656 140.882812 -763.792969 151.363281 -766.121094 C 157.183594 -767.285156 163.003906 -769.617188 168.828125 -770.78125 Z M 168.828125 -770.78125 "/></g></g></g><g fill="#ffffff" fill-opacity="1"><g transform="translate(947.737865, 1476.661306)"><g><path d="M 115.269531 -36.09375 C 96.636719 -29.109375 76.84375 -25.613281 57.050781 -20.957031 C 51.230469 -18.628906 43.078125 -19.792969 36.09375 -18.628906 C 30.273438 -17.464844 25.613281 -15.136719 20.957031 -10.480469 C 18.628906 -9.316406 17.464844 -6.984375 18.628906 -4.65625 C 19.792969 -2.328125 20.957031 -1.164062 23.285156 0 C 25.613281 0 27.945312 1.164062 30.273438 1.164062 C 39.585938 1.164062 50.066406 1.164062 59.378906 1.164062 C 153.691406 1.164062 248 1.164062 342.308594 1.164062 C 350.460938 1.164062 359.773438 0 367.925781 0 C 370.253906 0 371.417969 -1.164062 373.746094 -1.164062 C 378.402344 -2.328125 380.734375 -9.316406 378.402344 -12.808594 C 376.074219 -16.300781 373.746094 -18.628906 370.253906 -18.628906 C 352.789062 -20.957031 336.488281 -19.792969 320.1875 -24.449219 C 315.53125 -25.613281 310.875 -24.449219 306.214844 -25.613281 C 296.902344 -25.613281 287.585938 -25.613281 278.273438 -25.613281 C 272.449219 -26.78125 266.628906 -26.78125 260.808594 -29.109375 C 251.492188 -32.601562 242.179688 -32.601562 234.027344 -37.257812 C 230.535156 -38.421875 227.042969 -40.75 224.714844 -41.914062 C 215.398438 -48.902344 209.578125 -57.050781 209.578125 -68.695312 C 209.578125 -76.84375 209.578125 -84.996094 213.070312 -93.144531 C 216.5625 -105.953125 220.054688 -118.761719 222.386719 -131.566406 C 224.714844 -142.046875 228.207031 -151.363281 230.535156 -161.839844 C 232.863281 -169.992188 236.355469 -176.976562 238.6875 -185.125 C 241.015625 -194.441406 243.34375 -203.757812 248 -211.90625 C 250.328125 -220.054688 250.328125 -228.207031 253.820312 -236.355469 C 254.984375 -238.6875 256.148438 -239.851562 258.480469 -241.015625 C 261.972656 -243.34375 264.300781 -244.507812 267.792969 -244.507812 C 284.09375 -246.835938 299.230469 -246.835938 314.367188 -246.835938 C 331.832031 -246.835938 349.296875 -248 366.761719 -250.328125 C 373.746094 -252.65625 381.898438 -252.65625 388.882812 -252.65625 C 435.457031 -253.820312 483.191406 -256.148438 529.765625 -256.148438 C 540.246094 -256.148438 551.886719 -256.148438 562.367188 -258.480469 C 564.695312 -258.480469 567.023438 -258.480469 569.351562 -258.480469 C 575.175781 -258.480469 580.996094 -256.148438 584.488281 -251.492188 C 590.308594 -243.34375 594.96875 -235.191406 597.296875 -225.878906 C 605.445312 -201.425781 615.925781 -178.140625 624.074219 -152.527344 C 625.238281 -149.03125 626.402344 -144.375 627.570312 -139.71875 C 629.898438 -126.910156 633.390625 -114.101562 638.046875 -101.296875 C 643.867188 -86.160156 647.363281 -69.859375 654.347656 -54.722656 C 655.511719 -51.230469 654.347656 -47.738281 653.183594 -45.410156 C 650.855469 -41.914062 649.691406 -38.421875 646.199219 -36.09375 C 640.375 -32.601562 634.554688 -27.945312 627.570312 -26.78125 C 613.597656 -25.613281 599.625 -20.957031 585.652344 -19.792969 C 583.324219 -19.792969 580.996094 -18.628906 578.667969 -18.628906 C 570.515625 -16.300781 569.351562 -5.820312 572.84375 -1.164062 C 576.339844 3.492188 579.832031 4.65625 584.488281 6.984375 C 603.117188 8.148438 622.910156 8.148438 641.539062 5.820312 C 662.496094 3.492188 683.457031 3.492188 704.414062 2.328125 C 762.628906 2.328125 820.84375 2.328125 879.0625 1.164062 C 882.554688 1.164062 886.046875 1.164062 889.539062 1.164062 C 896.527344 1.164062 902.347656 -4.65625 904.675781 -11.644531 C 907.003906 -16.300781 903.511719 -24.449219 897.691406 -25.613281 C 889.539062 -27.945312 880.226562 -32.601562 870.910156 -32.601562 C 862.761719 -33.765625 854.609375 -37.257812 847.625 -39.585938 C 837.144531 -43.078125 831.324219 -50.066406 826.667969 -59.378906 C 825.503906 -61.707031 824.339844 -65.203125 823.175781 -68.695312 C 810.367188 -100.132812 797.558594 -132.734375 788.246094 -165.332031 C 784.75 -178.140625 780.09375 -189.785156 774.273438 -201.425781 C 771.945312 -207.25 769.617188 -213.070312 768.449219 -217.726562 C 757.972656 -243.34375 747.492188 -268.957031 735.851562 -293.410156 C 730.027344 -303.886719 725.371094 -314.367188 720.714844 -324.84375 C 716.058594 -337.652344 710.234375 -349.296875 706.742188 -360.9375 C 703.25 -372.582031 697.425781 -383.0625 692.769531 -393.539062 C 692.769531 -394.703125 692.769531 -395.867188 691.605469 -397.03125 C 686.949219 -413.332031 682.292969 -428.46875 677.632812 -444.769531 C 667.15625 -478.535156 656.675781 -512.300781 641.539062 -544.902344 C 634.554688 -561.203125 627.570312 -577.503906 621.746094 -593.804688 C 620.582031 -599.625 618.253906 -605.445312 615.925781 -610.105469 C 606.609375 -636.882812 594.96875 -663.664062 586.816406 -690.441406 C 583.324219 -702.085938 578.667969 -712.5625 574.007812 -723.042969 C 568.1875 -734.6875 564.695312 -747.492188 557.710938 -759.136719 C 551.886719 -767.285156 549.558594 -778.929688 544.902344 -787.082031 C 537.914062 -798.722656 528.601562 -805.710938 516.957031 -808.039062 C 513.464844 -808.039062 509.972656 -808.039062 506.480469 -808.039062 C 489.015625 -809.203125 472.714844 -809.203125 456.414062 -811.53125 C 450.589844 -812.695312 444.769531 -812.695312 438.949219 -812.695312 C 417.992188 -812.695312 395.867188 -813.859375 374.910156 -813.859375 C 366.761719 -813.859375 358.609375 -813.859375 350.460938 -811.53125 C 344.640625 -809.203125 338.816406 -809.203125 332.996094 -809.203125 C 319.023438 -808.039062 305.050781 -806.875 289.914062 -806.875 C 286.421875 -805.710938 282.929688 -805.710938 279.4375 -804.546875 C 278.273438 -804.546875 275.945312 -802.214844 274.78125 -801.050781 C 272.449219 -798.722656 271.285156 -792.902344 273.613281 -790.574219 C 274.78125 -789.410156 277.109375 -787.082031 278.273438 -787.082031 C 285.257812 -785.914062 293.410156 -785.914062 300.394531 -785.914062 C 310.875 -785.914062 321.351562 -785.914062 331.832031 -785.914062 C 338.816406 -784.75 344.640625 -778.929688 345.804688 -771.945312 C 345.804688 -767.285156 345.804688 -763.792969 345.804688 -760.300781 C 345.804688 -750.984375 343.472656 -741.671875 342.308594 -732.355469 C 338.816406 -720.714844 336.488281 -710.234375 332.996094 -698.59375 C 329.503906 -688.113281 328.339844 -677.632812 323.679688 -668.320312 C 321.351562 -657.839844 319.023438 -647.363281 316.695312 -636.882812 C 313.203125 -621.746094 308.542969 -607.773438 303.886719 -592.640625 C 296.902344 -572.84375 289.914062 -553.050781 284.09375 -532.09375 C 274.78125 -498.328125 265.464844 -464.5625 253.820312 -430.796875 C 253.820312 -428.46875 252.65625 -426.140625 252.65625 -423.8125 C 251.492188 -409.839844 245.671875 -398.199219 242.179688 -385.390625 C 237.519531 -370.253906 232.863281 -353.953125 228.207031 -338.816406 C 223.550781 -323.679688 218.890625 -309.710938 215.398438 -294.574219 C 215.398438 -291.078125 214.234375 -287.585938 213.070312 -284.09375 C 209.578125 -275.945312 207.25 -268.957031 204.921875 -260.808594 C 186.292969 -206.085938 168.828125 -150.195312 150.195312 -95.472656 C 146.703125 -84.996094 143.210938 -73.351562 138.554688 -61.707031 C 137.390625 -57.050781 133.898438 -52.394531 129.238281 -47.738281 C 125.746094 -43.078125 121.089844 -39.585938 115.269531 -36.09375 Z M 386.554688 -287.585938 C 350.460938 -287.585938 319.023438 -287.585938 287.585938 -287.585938 C 284.09375 -287.585938 280.601562 -287.585938 277.109375 -289.914062 C 274.78125 -291.078125 272.449219 -292.246094 273.613281 -294.574219 C 273.613281 -298.066406 273.613281 -302.722656 274.78125 -305.050781 C 287.585938 -331.832031 294.574219 -360.9375 301.558594 -388.882812 C 307.378906 -413.332031 314.367188 -437.785156 321.351562 -461.070312 C 331.832031 -491.34375 341.144531 -521.617188 352.789062 -550.722656 C 358.609375 -562.367188 359.773438 -575.175781 364.433594 -587.980469 C 366.761719 -596.132812 369.089844 -604.28125 371.417969 -611.269531 C 372.582031 -617.089844 374.910156 -622.910156 377.238281 -627.570312 C 381.898438 -636.882812 384.226562 -645.03125 386.554688 -654.347656 C 390.046875 -667.15625 392.375 -679.960938 397.03125 -692.769531 C 397.03125 -693.933594 399.363281 -696.261719 401.691406 -697.425781 C 402.855469 -698.59375 405.183594 -698.59375 407.511719 -695.097656 C 408.675781 -692.769531 411.003906 -689.277344 412.167969 -685.785156 C 415.664062 -677.632812 419.15625 -669.484375 421.484375 -660.167969 C 424.976562 -649.691406 427.304688 -639.210938 430.796875 -628.734375 C 434.292969 -615.925781 438.949219 -601.953125 443.605469 -589.144531 C 449.425781 -575.175781 456.414062 -561.203125 463.398438 -547.230469 C 466.890625 -539.082031 471.550781 -529.765625 475.042969 -521.617188 C 477.371094 -515.792969 480.863281 -511.136719 483.191406 -505.316406 C 489.015625 -485.519531 499.492188 -466.890625 508.808594 -447.097656 C 514.628906 -431.960938 521.617188 -417.992188 528.601562 -401.691406 C 530.929688 -395.867188 533.257812 -388.882812 535.585938 -381.898438 C 541.410156 -359.773438 550.722656 -337.652344 560.039062 -316.695312 C 562.367188 -312.039062 564.695312 -308.542969 567.023438 -303.886719 C 568.1875 -300.394531 565.859375 -296.902344 562.367188 -295.738281 C 555.378906 -295.738281 548.394531 -295.738281 541.410156 -295.738281 C 526.273438 -295.738281 511.136719 -294.574219 496 -292.246094 C 491.34375 -291.078125 486.6875 -291.078125 482.027344 -291.078125 C 448.261719 -289.914062 415.664062 -287.585938 386.554688 -287.585938 Z M 386.554688 -287.585938 "/></g></g></g><g fill="#ffffff" fill-opacity="1"><g transform="translate(1872.153893, 1476.661306)"><g><path d="M 326.007812 -776.601562 C 338.816406 -782.421875 350.460938 -787.082031 364.433594 -787.082031 C 366.761719 -787.082031 369.089844 -788.246094 371.417969 -789.410156 C 374.910156 -790.574219 377.238281 -791.738281 380.734375 -794.066406 C 383.0625 -795.230469 383.0625 -802.214844 381.898438 -803.378906 C 378.402344 -805.710938 376.074219 -808.039062 372.582031 -808.039062 C 366.761719 -809.203125 360.9375 -809.203125 353.953125 -809.203125 C 291.078125 -809.203125 227.042969 -809.203125 163.003906 -809.203125 C 138.554688 -809.203125 112.9375 -809.203125 88.488281 -809.203125 C 83.832031 -809.203125 79.171875 -809.203125 74.515625 -808.039062 C 69.859375 -808.039062 65.203125 -804.546875 62.875 -801.050781 C 59.378906 -797.558594 61.707031 -790.574219 65.203125 -789.410156 C 68.695312 -788.246094 72.1875 -787.082031 75.679688 -787.082031 C 91.980469 -787.082031 105.953125 -783.585938 121.089844 -777.765625 C 124.582031 -776.601562 126.910156 -774.273438 130.402344 -771.945312 C 132.734375 -770.78125 133.898438 -767.285156 135.0625 -763.792969 C 135.0625 -761.464844 136.226562 -759.136719 136.226562 -756.808594 C 136.226562 -714.890625 136.226562 -674.140625 137.390625 -632.226562 C 137.390625 -625.238281 137.390625 -618.253906 137.390625 -611.269531 C 137.390625 -539.082031 137.390625 -466.890625 136.226562 -394.703125 C 135.0625 -306.214844 135.0625 -217.726562 135.0625 -128.074219 C 135.0625 -110.609375 135.0625 -93.144531 130.402344 -75.679688 C 129.238281 -69.859375 129.238281 -64.039062 128.074219 -58.214844 C 128.074219 -52.394531 124.582031 -47.738281 118.761719 -44.246094 C 111.773438 -39.585938 104.789062 -36.09375 96.636719 -32.601562 C 80.339844 -27.945312 62.875 -24.449219 46.574219 -17.464844 C 43.078125 -16.300781 40.75 -13.972656 38.421875 -10.480469 C 36.09375 -6.984375 39.585938 0 43.078125 0 C 44.246094 0 45.410156 1.164062 46.574219 1.164062 C 89.652344 1.164062 132.734375 1.164062 174.648438 1.164062 C 181.632812 1.164062 188.621094 1.164062 195.605469 -1.164062 C 203.757812 -3.492188 211.90625 -3.492188 220.054688 -3.492188 C 261.972656 -3.492188 302.722656 -3.492188 344.640625 -3.492188 C 352.789062 -3.492188 360.9375 -3.492188 369.089844 -4.65625 C 371.417969 -4.65625 373.746094 -5.820312 376.074219 -5.820312 C 378.402344 -6.984375 383.0625 -11.644531 381.898438 -13.972656 C 380.734375 -16.300781 379.566406 -18.628906 377.238281 -19.792969 C 376.074219 -20.957031 373.746094 -22.121094 371.417969 -22.121094 C 366.761719 -24.449219 362.101562 -25.613281 357.445312 -25.613281 C 341.144531 -29.109375 326.007812 -36.09375 312.039062 -44.246094 C 308.542969 -46.574219 305.050781 -51.230469 303.886719 -55.886719 C 303.886719 -58.214844 303.886719 -60.542969 303.886719 -62.875 C 302.722656 -109.445312 302.722656 -154.855469 303.886719 -201.425781 C 303.886719 -238.6875 305.050781 -277.109375 306.214844 -314.367188 C 306.214844 -319.023438 307.378906 -322.515625 309.710938 -324.84375 C 319.023438 -335.324219 327.175781 -346.96875 336.488281 -357.445312 C 338.816406 -362.101562 342.308594 -365.597656 345.804688 -367.925781 C 353.953125 -376.074219 362.101562 -384.226562 371.417969 -392.375 C 378.402344 -399.363281 386.554688 -404.019531 394.703125 -407.511719 C 399.363281 -408.675781 405.183594 -406.347656 407.511719 -402.855469 C 413.332031 -394.703125 417.992188 -387.71875 422.648438 -378.402344 C 433.128906 -358.609375 445.933594 -341.144531 459.90625 -322.515625 C 464.5625 -315.53125 469.222656 -309.710938 472.714844 -301.558594 C 478.535156 -291.078125 485.519531 -281.765625 492.507812 -271.285156 C 500.65625 -258.480469 508.808594 -245.671875 515.792969 -232.863281 C 519.285156 -225.878906 522.78125 -220.054688 526.273438 -214.234375 C 547.230469 -181.632812 568.1875 -150.195312 589.144531 -119.925781 C 596.132812 -109.445312 603.117188 -100.132812 607.773438 -89.652344 C 615.925781 -74.515625 624.074219 -60.542969 633.390625 -46.574219 C 634.554688 -43.078125 635.71875 -40.75 638.046875 -37.257812 C 639.210938 -34.929688 636.882812 -29.109375 634.554688 -27.945312 C 628.734375 -24.449219 621.746094 -20.957031 614.761719 -20.957031 C 606.609375 -19.792969 598.460938 -18.628906 590.308594 -17.464844 C 587.980469 -17.464844 585.652344 -16.300781 583.324219 -16.300781 C 576.339844 -13.972656 572.84375 -4.65625 577.503906 1.164062 C 579.832031 3.492188 583.324219 5.820312 586.816406 6.984375 C 590.308594 6.984375 593.804688 6.984375 597.296875 6.984375 C 664.828125 6.984375 732.355469 6.984375 798.722656 6.984375 C 811.53125 6.984375 823.175781 6.984375 834.816406 4.65625 C 841.804688 3.492188 848.789062 3.492188 855.773438 3.492188 C 866.253906 3.492188 876.734375 3.492188 887.210938 3.492188 C 889.539062 3.492188 891.867188 2.328125 894.199219 2.328125 C 898.855469 1.164062 903.511719 -4.65625 902.347656 -8.148438 C 902.347656 -12.808594 900.019531 -17.464844 895.363281 -19.792969 C 889.539062 -23.285156 882.554688 -25.613281 875.570312 -26.78125 C 862.761719 -26.78125 849.953125 -31.4375 838.308594 -34.929688 C 831.324219 -37.257812 824.339844 -40.75 819.679688 -46.574219 C 815.023438 -52.394531 809.203125 -59.378906 804.546875 -66.367188 C 797.558594 -76.84375 790.574219 -88.488281 783.585938 -98.96875 C 777.765625 -108.28125 771.945312 -117.597656 766.121094 -125.746094 C 759.136719 -136.226562 752.152344 -147.867188 746.328125 -159.511719 C 742.835938 -166.496094 739.34375 -173.484375 734.6875 -180.46875 C 711.398438 -216.5625 688.113281 -252.65625 664.828125 -287.585938 C 649.691406 -308.542969 635.71875 -330.667969 621.746094 -352.789062 C 604.28125 -380.734375 586.816406 -408.675781 569.351562 -436.621094 C 564.695312 -443.605469 560.039062 -450.589844 554.214844 -457.578125 C 548.394531 -464.5625 542.574219 -471.550781 536.75 -479.699219 C 532.09375 -485.519531 528.601562 -491.34375 525.109375 -497.164062 C 521.617188 -504.152344 516.957031 -511.136719 513.464844 -518.121094 C 509.972656 -523.945312 511.136719 -529.765625 514.628906 -535.585938 C 516.957031 -539.082031 520.449219 -542.574219 522.78125 -546.066406 C 534.421875 -562.367188 548.394531 -577.503906 562.367188 -591.472656 C 578.667969 -606.609375 592.640625 -621.746094 606.609375 -638.046875 C 614.761719 -648.527344 622.910156 -657.839844 633.390625 -665.992188 C 645.03125 -676.46875 655.511719 -688.113281 664.828125 -699.757812 C 672.976562 -711.398438 682.292969 -721.878906 691.605469 -733.523438 C 702.085938 -745.164062 712.5625 -757.972656 727.699219 -767.285156 C 733.523438 -770.78125 738.179688 -776.601562 742.835938 -781.257812 C 746.328125 -784.75 750.984375 -785.914062 755.644531 -785.914062 C 764.957031 -787.082031 775.4375 -787.082031 784.75 -787.082031 C 791.738281 -788.246094 798.722656 -790.574219 804.546875 -794.066406 C 805.710938 -794.066406 805.710938 -795.230469 806.875 -796.394531 C 809.203125 -797.558594 810.367188 -799.886719 809.203125 -802.214844 C 809.203125 -804.546875 806.875 -805.710938 804.546875 -806.875 C 802.214844 -809.203125 798.722656 -809.203125 795.230469 -809.203125 C 719.550781 -809.203125 643.867188 -809.203125 568.1875 -809.203125 C 565.859375 -809.203125 562.367188 -809.203125 561.203125 -808.039062 C 560.039062 -808.039062 558.875 -806.875 557.710938 -806.875 C 555.378906 -805.710938 554.214844 -803.378906 554.214844 -801.050781 C 555.378906 -799.886719 555.378906 -798.722656 555.378906 -797.558594 C 557.710938 -795.230469 561.203125 -792.902344 564.695312 -792.902344 C 578.667969 -792.902344 593.804688 -792.902344 607.773438 -791.738281 C 618.253906 -791.738281 628.734375 -789.410156 638.046875 -785.914062 C 642.703125 -783.585938 645.03125 -778.929688 646.199219 -774.273438 C 647.363281 -770.78125 646.199219 -767.285156 645.03125 -763.792969 C 639.210938 -752.152344 631.0625 -741.671875 622.910156 -732.355469 C 605.445312 -712.5625 587.980469 -693.933594 569.351562 -675.304688 C 537.914062 -646.199219 507.644531 -617.089844 477.371094 -586.816406 C 465.726562 -575.175781 454.085938 -563.53125 442.441406 -551.886719 C 436.621094 -547.230469 431.960938 -541.410156 427.304688 -536.75 C 405.183594 -518.121094 385.390625 -499.492188 364.433594 -479.699219 C 348.132812 -465.726562 331.832031 -451.757812 314.367188 -440.113281 C 312.039062 -437.785156 306.214844 -440.113281 306.214844 -443.605469 C 306.214844 -447.097656 305.050781 -450.589844 305.050781 -454.085938 C 305.050781 -471.550781 305.050781 -489.015625 305.050781 -507.644531 C 302.722656 -542.574219 303.886719 -578.667969 302.722656 -613.597656 C 302.722656 -657.839844 306.214844 -700.921875 307.378906 -745.164062 C 307.378906 -753.316406 310.875 -761.464844 316.695312 -767.285156 C 320.1875 -770.78125 323.679688 -773.109375 326.007812 -776.601562 Z M 326.007812 -776.601562 "/></g></g></g><g fill="#ffffff" fill-opacity="1"><g transform="translate(2803.55535, 1476.661306)"><g><path d="M 451.757812 -812.695312 C 438.949219 -812.695312 424.976562 -812.695312 412.167969 -812.695312 C 406.347656 -812.695312 400.527344 -812.695312 394.703125 -811.53125 C 380.734375 -809.203125 366.761719 -808.039062 352.789062 -808.039062 C 343.472656 -806.875 334.160156 -806.875 324.84375 -803.378906 C 321.351562 -803.378906 317.859375 -802.214844 314.367188 -802.214844 C 295.738281 -798.722656 277.109375 -792.902344 260.808594 -784.75 C 248 -778.929688 235.191406 -771.945312 222.386719 -766.121094 C 218.890625 -764.957031 215.398438 -762.628906 213.070312 -760.300781 C 194.441406 -748.65625 175.8125 -734.6875 159.511719 -719.550781 C 152.527344 -711.398438 145.539062 -703.25 139.71875 -695.097656 C 130.402344 -681.128906 119.925781 -668.320312 110.609375 -654.347656 C 102.460938 -641.539062 96.636719 -627.570312 89.652344 -613.597656 C 87.324219 -606.609375 83.832031 -600.789062 80.339844 -593.804688 C 66.367188 -569.351562 55.886719 -543.738281 50.066406 -515.792969 C 50.066406 -513.464844 48.902344 -511.136719 47.738281 -508.808594 C 44.246094 -493.671875 40.75 -478.535156 39.585938 -463.398438 C 37.257812 -436.621094 36.09375 -408.675781 36.09375 -381.898438 C 36.09375 -374.910156 37.257812 -367.925781 38.421875 -360.9375 C 39.585938 -342.308594 43.078125 -326.007812 51.230469 -287.585938 C 52.394531 -277.109375 55.886719 -266.628906 60.542969 -257.316406 C 61.707031 -253.820312 64.039062 -251.492188 65.203125 -248 C 69.859375 -230.535156 79.171875 -215.398438 87.324219 -199.097656 C 93.144531 -186.292969 101.296875 -174.648438 111.773438 -164.167969 C 119.925781 -156.019531 126.910156 -147.867188 136.226562 -138.554688 C 142.046875 -133.898438 147.867188 -128.074219 154.855469 -123.417969 C 167.660156 -114.101562 179.304688 -104.789062 189.785156 -93.144531 C 199.097656 -84.996094 209.578125 -76.84375 220.054688 -68.695312 C 239.851562 -55.886719 259.644531 -44.246094 280.601562 -32.601562 C 284.09375 -30.273438 286.421875 -29.109375 289.914062 -27.945312 C 308.542969 -19.792969 327.175781 -12.808594 345.804688 -4.65625 C 352.789062 -2.328125 358.609375 0 366.761719 1.164062 C 371.417969 1.164062 376.074219 2.328125 380.734375 3.492188 C 392.375 6.984375 406.347656 6.984375 419.15625 8.148438 C 434.292969 8.148438 449.425781 8.148438 464.5625 6.984375 C 471.550781 6.984375 479.699219 6.984375 486.6875 5.820312 C 498.328125 3.492188 509.972656 2.328125 521.617188 1.164062 C 537.914062 0 553.050781 -5.820312 569.351562 -9.316406 C 579.832031 -12.808594 590.308594 -15.136719 599.625 -20.957031 C 605.445312 -24.449219 611.269531 -27.945312 618.253906 -30.273438 C 633.390625 -37.257812 647.363281 -46.574219 660.167969 -57.050781 C 665.992188 -61.707031 672.976562 -67.53125 679.960938 -72.1875 C 700.921875 -87.324219 719.550781 -105.953125 735.851562 -125.746094 C 752.152344 -144.375 767.285156 -164.167969 780.09375 -185.125 C 784.75 -192.113281 788.246094 -200.261719 791.738281 -207.25 C 799.886719 -225.878906 804.546875 -245.671875 812.695312 -264.300781 C 818.515625 -278.273438 819.679688 -293.410156 823.175781 -308.542969 C 826.667969 -316.695312 825.503906 -324.84375 826.667969 -332.996094 C 826.667969 -339.980469 827.832031 -346.96875 830.160156 -353.953125 C 832.488281 -360.9375 832.488281 -367.925781 832.488281 -374.910156 C 832.488281 -395.867188 833.652344 -417.992188 832.488281 -438.949219 C 832.488281 -449.425781 832.488281 -459.90625 828.996094 -470.386719 C 827.832031 -475.042969 827.832031 -479.699219 826.667969 -484.355469 C 826.667969 -496 823.175781 -507.644531 819.679688 -519.285156 C 810.367188 -557.710938 794.066406 -592.640625 771.945312 -625.238281 C 760.300781 -643.867188 746.328125 -661.332031 732.355469 -679.960938 C 721.878906 -695.097656 707.90625 -707.90625 693.933594 -720.714844 C 681.128906 -732.355469 667.15625 -744 654.347656 -755.644531 C 641.539062 -766.121094 627.570312 -775.4375 612.433594 -783.585938 C 604.28125 -787.082031 596.132812 -791.738281 587.980469 -795.230469 C 572.84375 -803.378906 556.542969 -808.039062 540.246094 -808.039062 C 530.929688 -808.039062 520.449219 -808.039062 511.136719 -810.367188 C 501.820312 -812.695312 492.507812 -812.695312 483.191406 -812.695312 C 472.714844 -812.695312 462.234375 -812.695312 451.757812 -812.695312 Z M 223.550781 -364.433594 C 223.550781 -377.238281 223.550781 -390.046875 224.714844 -402.855469 C 224.714844 -407.511719 224.714844 -412.167969 224.714844 -416.828125 C 229.371094 -437.785156 229.371094 -458.742188 230.535156 -480.863281 C 231.699219 -492.507812 231.699219 -504.152344 235.191406 -515.792969 C 238.6875 -527.4375 238.6875 -541.410156 242.179688 -554.214844 C 244.507812 -572.84375 249.164062 -590.308594 256.148438 -608.9375 C 261.972656 -632.226562 271.285156 -653.183594 280.601562 -675.304688 C 285.257812 -685.785156 291.078125 -696.261719 299.230469 -704.414062 C 301.558594 -706.742188 302.722656 -707.90625 303.886719 -710.234375 C 313.203125 -724.207031 324.84375 -735.851562 338.816406 -745.164062 C 343.472656 -748.65625 348.132812 -753.316406 351.625 -756.808594 C 362.101562 -764.957031 373.746094 -770.78125 386.554688 -774.273438 C 390.046875 -775.4375 393.539062 -775.4375 397.03125 -776.601562 C 405.183594 -778.929688 413.332031 -778.929688 421.484375 -777.765625 C 424.976562 -777.765625 428.46875 -776.601562 431.960938 -775.4375 C 442.441406 -774.273438 452.921875 -773.109375 463.398438 -771.945312 C 476.207031 -770.78125 489.015625 -767.285156 500.65625 -761.464844 C 512.300781 -756.808594 523.945312 -750.984375 535.585938 -744 C 550.722656 -735.851562 563.53125 -726.535156 572.84375 -712.5625 C 580.996094 -700.921875 589.144531 -689.277344 596.132812 -676.46875 C 601.953125 -669.484375 605.445312 -660.167969 608.9375 -652.019531 C 618.253906 -629.898438 625.238281 -607.773438 632.226562 -584.488281 C 635.71875 -575.175781 636.882812 -563.53125 639.210938 -554.214844 C 642.703125 -542.574219 643.867188 -530.929688 647.363281 -519.285156 C 649.691406 -508.808594 650.855469 -498.328125 653.183594 -487.851562 C 656.675781 -475.042969 657.839844 -462.234375 660.167969 -449.425781 C 660.167969 -447.097656 661.332031 -444.769531 660.167969 -442.441406 C 660.167969 -419.15625 662.496094 -395.867188 659.003906 -371.417969 C 656.675781 -358.609375 656.675781 -345.804688 656.675781 -332.996094 C 655.511719 -308.542969 650.855469 -284.09375 645.03125 -259.644531 C 641.539062 -245.671875 638.046875 -231.699219 634.554688 -217.726562 C 629.898438 -193.277344 621.746094 -167.660156 608.9375 -145.539062 C 600.789062 -129.238281 592.640625 -114.101562 583.324219 -98.96875 C 578.667969 -90.816406 572.84375 -82.667969 567.023438 -75.679688 C 557.710938 -62.875 546.066406 -53.558594 530.929688 -47.738281 C 519.285156 -44.246094 508.808594 -40.75 497.164062 -37.257812 C 492.507812 -36.09375 487.851562 -34.929688 483.191406 -34.929688 C 462.234375 -32.601562 441.277344 -33.765625 419.15625 -36.09375 C 408.675781 -36.09375 399.363281 -40.75 388.882812 -43.078125 C 379.566406 -46.574219 371.417969 -50.066406 362.101562 -53.558594 C 357.445312 -55.886719 351.625 -59.378906 346.96875 -62.875 C 324.84375 -79.171875 305.050781 -97.804688 286.421875 -117.597656 C 281.765625 -122.253906 278.273438 -128.074219 274.78125 -135.0625 C 266.628906 -156.019531 256.148438 -175.8125 248 -196.769531 C 245.671875 -201.425781 244.507812 -204.921875 244.507812 -209.578125 C 242.179688 -223.550781 237.519531 -235.191406 237.519531 -248 C 236.355469 -251.492188 235.191406 -254.984375 234.027344 -258.480469 C 231.699219 -265.464844 230.535156 -272.449219 230.535156 -279.4375 C 229.371094 -288.75 228.207031 -298.066406 225.878906 -307.378906 C 224.714844 -312.039062 223.550781 -316.695312 223.550781 -321.351562 C 223.550781 -335.324219 223.550781 -349.296875 223.550781 -364.433594 Z M 223.550781 -364.433594 "/></g></g></g><g fill="#ffffff" fill-opacity="1"><g transform="translate(3674.41557, 1476.661306)"><g/></g></g><g fill="#ffffff" fill-opacity="1"><g transform="translate(3907.266201, 1476.661306)"><g><path d="M 315.53125 -750.984375 C 317.859375 -755.644531 319.023438 -759.136719 321.351562 -763.792969 C 322.515625 -769.617188 327.175781 -774.273438 331.832031 -776.601562 C 338.816406 -781.257812 345.804688 -785.914062 355.117188 -785.914062 C 365.597656 -788.246094 374.910156 -791.738281 385.390625 -794.066406 C 386.554688 -794.066406 387.71875 -795.230469 388.882812 -795.230469 C 391.210938 -797.558594 392.375 -798.722656 391.210938 -802.214844 C 391.210938 -808.039062 386.554688 -812.695312 380.734375 -812.695312 C 376.074219 -813.859375 371.417969 -813.859375 366.761719 -813.859375 C 277.109375 -813.859375 187.457031 -813.859375 97.804688 -813.859375 C 91.980469 -813.859375 87.324219 -813.859375 82.667969 -812.695312 C 76.84375 -812.695312 72.1875 -809.203125 68.695312 -804.546875 C 66.367188 -802.214844 65.203125 -801.050781 66.367188 -798.722656 C 67.53125 -796.394531 69.859375 -795.230469 71.023438 -792.902344 C 84.996094 -791.738281 98.96875 -787.082031 112.9375 -784.75 C 121.089844 -783.585938 128.074219 -780.09375 135.0625 -775.4375 C 139.71875 -773.109375 142.046875 -768.449219 142.046875 -763.792969 C 143.210938 -760.300781 143.210938 -756.808594 143.210938 -753.316406 C 143.210938 -737.015625 143.210938 -720.714844 143.210938 -704.414062 C 143.210938 -649.691406 143.210938 -594.96875 143.210938 -541.410156 C 143.210938 -477.371094 143.210938 -413.332031 143.210938 -349.296875 C 143.210938 -337.652344 142.046875 -326.007812 142.046875 -314.367188 C 142.046875 -298.066406 140.882812 -280.601562 140.882812 -264.300781 C 140.882812 -217.726562 140.882812 -169.992188 140.882812 -122.253906 C 140.882812 -112.9375 140.882812 -103.625 139.71875 -94.308594 C 138.554688 -82.667969 138.554688 -71.023438 138.554688 -59.378906 C 137.390625 -8.148438 137.390625 43.078125 136.226562 93.144531 C 136.226562 103.625 136.226562 115.269531 135.0625 125.746094 C 133.898438 135.0625 130.402344 143.210938 128.074219 152.527344 C 126.910156 161.839844 121.089844 169.992188 114.101562 176.976562 C 104.789062 187.457031 91.980469 193.277344 79.171875 199.097656 C 67.53125 201.425781 55.886719 206.085938 44.246094 206.085938 C 37.257812 206.085938 30.273438 206.085938 23.285156 207.25 C 18.628906 207.25 15.136719 213.070312 16.300781 217.726562 C 17.464844 221.222656 19.792969 224.714844 23.285156 225.878906 C 33.765625 230.535156 44.246094 235.191406 57.050781 236.355469 C 75.679688 237.519531 94.308594 237.519531 112.9375 236.355469 C 124.582031 236.355469 136.226562 235.191406 147.867188 231.699219 C 150.195312 230.535156 152.527344 229.371094 154.855469 229.371094 C 171.15625 228.207031 187.457031 222.386719 202.589844 216.5625 C 204.921875 216.5625 207.25 215.398438 209.578125 215.398438 C 229.371094 208.414062 244.507812 196.769531 260.808594 183.960938 C 270.121094 176.976562 275.945312 165.332031 281.765625 156.019531 C 284.09375 151.363281 286.421875 147.867188 288.75 143.210938 C 289.914062 140.882812 291.078125 139.71875 291.078125 137.390625 C 293.410156 129.238281 296.902344 121.089844 298.066406 112.9375 C 302.722656 87.324219 307.378906 61.707031 307.378906 36.09375 C 306.214844 23.285156 307.378906 10.480469 307.378906 -3.492188 C 307.378906 -19.792969 306.214844 -36.09375 307.378906 -52.394531 C 308.542969 -69.859375 308.542969 -88.488281 308.542969 -105.953125 C 308.542969 -123.417969 308.542969 -140.882812 308.542969 -159.511719 C 308.542969 -166.496094 308.542969 -173.484375 309.710938 -180.46875 C 310.875 -189.785156 310.875 -199.097656 312.039062 -208.414062 C 313.203125 -257.316406 313.203125 -305.050781 313.203125 -353.953125 C 312.039062 -455.25 312.039062 -556.542969 312.039062 -659.003906 C 312.039062 -689.277344 313.203125 -719.550781 315.53125 -750.984375 Z M 315.53125 -750.984375 "/></g></g></g><g fill="#ffffff" fill-opacity="1"><g transform="translate(4318.246995, 1476.661306)"><g><path d="M 343.472656 1.164062 C 355.117188 1.164062 366.761719 1.164062 378.402344 1.164062 C 457.578125 1.164062 536.75 1.164062 615.925781 1.164062 C 626.402344 1.164062 635.71875 1.164062 645.03125 0 C 652.019531 0 659.003906 -3.492188 664.828125 -6.984375 C 668.320312 -10.480469 670.648438 -15.136719 671.8125 -19.792969 C 672.976562 -29.109375 672.976562 -38.421875 674.140625 -47.738281 C 675.304688 -53.558594 675.304688 -59.378906 676.46875 -65.203125 C 678.796875 -74.515625 679.960938 -83.832031 679.960938 -93.144531 C 681.128906 -108.28125 681.128906 -123.417969 683.457031 -138.554688 C 688.113281 -157.183594 688.113281 -176.976562 686.949219 -195.605469 C 686.949219 -201.425781 679.960938 -206.085938 674.140625 -203.757812 C 669.484375 -203.757812 665.992188 -200.261719 663.664062 -195.605469 C 662.496094 -192.113281 661.332031 -188.621094 661.332031 -185.125 C 659.003906 -175.8125 657.839844 -166.496094 654.347656 -158.347656 C 652.019531 -149.03125 648.527344 -139.71875 643.867188 -131.566406 C 640.375 -123.417969 635.71875 -115.269531 632.226562 -105.953125 C 628.734375 -98.96875 624.074219 -91.980469 619.417969 -84.996094 C 614.761719 -79.171875 610.105469 -74.515625 604.28125 -69.859375 C 599.625 -66.367188 594.96875 -62.875 589.144531 -60.542969 C 582.160156 -55.886719 575.175781 -52.394531 567.023438 -50.066406 C 548.394531 -45.410156 530.929688 -40.75 511.136719 -39.585938 C 494.835938 -39.585938 478.535156 -39.585938 462.234375 -36.09375 C 456.414062 -34.929688 449.425781 -34.929688 443.605469 -34.929688 C 400.527344 -34.929688 356.28125 -34.929688 313.203125 -34.929688 C 309.710938 -34.929688 306.214844 -34.929688 302.722656 -34.929688 C 300.394531 -36.09375 294.574219 -39.585938 294.574219 -41.914062 C 293.410156 -44.246094 292.246094 -46.574219 292.246094 -48.902344 C 292.246094 -62.875 291.078125 -76.84375 291.078125 -90.816406 C 291.078125 -140.882812 291.078125 -190.949219 291.078125 -239.851562 C 291.078125 -264.300781 291.078125 -287.585938 294.574219 -310.875 C 295.738281 -316.695312 295.738281 -322.515625 295.738281 -328.339844 C 296.902344 -344.640625 296.902344 -362.101562 298.066406 -378.402344 C 298.066406 -381.898438 298.066406 -385.390625 299.230469 -388.882812 C 299.230469 -391.210938 303.886719 -395.867188 306.214844 -395.867188 C 309.710938 -397.03125 315.53125 -398.199219 320.1875 -398.199219 C 357.445312 -397.03125 395.867188 -397.03125 433.128906 -397.03125 C 448.261719 -397.03125 461.070312 -393.539062 473.878906 -386.554688 C 476.207031 -384.226562 479.699219 -383.0625 483.191406 -380.734375 C 484.355469 -380.734375 484.355469 -379.566406 485.519531 -378.402344 C 490.179688 -376.074219 493.671875 -372.582031 494.835938 -367.925781 C 500.65625 -353.953125 505.316406 -338.816406 508.808594 -324.84375 C 511.136719 -316.695312 513.464844 -308.542969 516.957031 -300.394531 C 518.121094 -299.230469 519.285156 -296.902344 520.449219 -294.574219 C 522.78125 -291.078125 525.109375 -289.914062 529.765625 -289.914062 C 533.257812 -289.914062 537.914062 -294.574219 539.082031 -299.230469 C 539.082031 -302.722656 539.082031 -306.214844 539.082031 -309.710938 C 539.082031 -319.023438 537.914062 -328.339844 535.585938 -337.652344 C 533.257812 -346.96875 532.09375 -356.28125 532.09375 -365.597656 C 530.929688 -383.0625 530.929688 -400.527344 532.09375 -419.15625 C 533.257812 -426.140625 532.09375 -433.128906 534.421875 -440.113281 C 537.914062 -462.234375 537.914062 -484.355469 540.246094 -506.480469 C 541.410156 -515.792969 540.246094 -523.945312 540.246094 -532.09375 C 540.246094 -534.421875 540.246094 -536.75 539.082031 -539.082031 C 537.914062 -540.246094 535.585938 -542.574219 534.421875 -543.738281 C 533.257812 -544.902344 526.273438 -542.574219 525.109375 -541.410156 C 522.78125 -537.914062 520.449219 -535.585938 519.285156 -532.09375 C 515.792969 -521.617188 513.464844 -511.136719 512.300781 -500.65625 C 509.972656 -490.179688 506.480469 -480.863281 502.984375 -470.386719 C 500.65625 -462.234375 494.835938 -456.414062 487.851562 -451.757812 C 475.042969 -443.605469 462.234375 -438.949219 448.261719 -438.949219 C 442.441406 -438.949219 436.621094 -437.785156 430.796875 -437.785156 C 391.210938 -437.785156 352.789062 -437.785156 313.203125 -437.785156 C 312.039062 -437.785156 310.875 -437.785156 309.710938 -437.785156 C 305.050781 -438.949219 300.394531 -443.605469 300.394531 -447.097656 C 300.394531 -457.578125 300.394531 -469.222656 300.394531 -479.699219 C 300.394531 -489.015625 299.230469 -498.328125 300.394531 -507.644531 C 302.722656 -519.285156 302.722656 -530.929688 302.722656 -542.574219 C 302.722656 -568.1875 302.722656 -592.640625 302.722656 -617.089844 C 302.722656 -636.882812 303.886719 -655.511719 300.394531 -674.140625 C 299.230469 -677.632812 299.230469 -681.128906 299.230469 -684.621094 C 299.230469 -707.90625 298.066406 -732.355469 298.066406 -755.644531 C 296.902344 -759.136719 298.066406 -762.628906 298.066406 -766.121094 C 298.066406 -769.617188 302.722656 -775.4375 307.378906 -776.601562 C 312.039062 -777.765625 316.695312 -777.765625 321.351562 -777.765625 C 365.597656 -777.765625 411.003906 -777.765625 455.25 -777.765625 C 470.386719 -777.765625 484.355469 -777.765625 498.328125 -777.765625 C 502.984375 -777.765625 507.644531 -777.765625 512.300781 -776.601562 C 522.78125 -773.109375 533.257812 -773.109375 543.738281 -770.78125 C 547.230469 -769.617188 550.722656 -768.449219 553.050781 -766.121094 C 555.378906 -764.957031 557.710938 -763.792969 558.875 -762.628906 C 578.667969 -745.164062 594.96875 -724.207031 608.9375 -702.085938 C 614.761719 -692.769531 620.582031 -682.292969 626.402344 -671.8125 C 627.570312 -669.484375 628.734375 -667.15625 628.734375 -664.828125 C 632.226562 -654.347656 636.882812 -645.03125 638.046875 -634.554688 C 638.046875 -631.0625 639.210938 -627.570312 640.375 -624.074219 C 640.375 -621.746094 641.539062 -619.417969 643.867188 -618.253906 C 645.03125 -617.089844 647.363281 -615.925781 649.691406 -615.925781 C 652.019531 -614.761719 657.839844 -619.417969 657.839844 -621.746094 C 657.839844 -624.074219 659.003906 -626.402344 659.003906 -628.734375 C 659.003906 -646.199219 659.003906 -663.664062 656.675781 -681.128906 C 655.511719 -692.769531 654.347656 -705.578125 654.347656 -717.222656 C 654.347656 -734.6875 654.347656 -752.152344 654.347656 -769.617188 C 653.183594 -781.257812 653.183594 -791.738281 650.855469 -802.214844 C 650.855469 -805.710938 645.03125 -810.367188 641.539062 -811.53125 C 635.71875 -812.695312 629.898438 -812.695312 624.074219 -812.695312 C 507.644531 -813.859375 392.375 -813.859375 275.945312 -815.023438 C 267.792969 -815.023438 259.644531 -815.023438 251.492188 -813.859375 C 236.355469 -812.695312 220.054688 -812.695312 204.921875 -812.695312 C 196.769531 -812.695312 188.621094 -811.53125 180.46875 -810.367188 C 157.183594 -805.710938 133.898438 -806.875 109.445312 -810.367188 C 91.980469 -812.695312 74.515625 -812.695312 57.050781 -811.53125 C 53.558594 -811.53125 48.902344 -806.875 48.902344 -802.214844 C 48.902344 -799.886719 50.066406 -797.558594 51.230469 -795.230469 C 55.886719 -790.574219 60.542969 -787.082031 66.367188 -787.082031 C 79.171875 -785.914062 91.980469 -781.257812 104.789062 -778.929688 C 110.609375 -777.765625 115.269531 -774.273438 119.925781 -769.617188 C 123.417969 -767.285156 125.746094 -762.628906 125.746094 -757.972656 C 126.910156 -750.984375 126.910156 -744 126.910156 -737.015625 C 126.910156 -686.949219 126.910156 -636.882812 126.910156 -587.980469 C 128.074219 -564.695312 128.074219 -542.574219 129.238281 -520.449219 C 129.238281 -513.464844 129.238281 -506.480469 130.402344 -499.492188 C 132.734375 -487.851562 132.734375 -475.042969 132.734375 -463.398438 C 132.734375 -433.128906 132.734375 -401.691406 133.898438 -371.417969 C 135.0625 -356.28125 133.898438 -341.144531 132.734375 -326.007812 C 129.238281 -302.722656 129.238281 -280.601562 128.074219 -258.480469 C 128.074219 -243.34375 128.074219 -227.042969 126.910156 -211.90625 C 126.910156 -204.921875 126.910156 -197.933594 125.746094 -190.949219 C 121.089844 -175.8125 122.253906 -160.675781 122.253906 -145.539062 C 122.253906 -128.074219 122.253906 -111.773438 122.253906 -95.472656 C 122.253906 -83.832031 121.089844 -72.1875 119.925781 -60.542969 C 118.761719 -51.230469 114.101562 -44.246094 105.953125 -40.75 C 101.296875 -37.257812 95.472656 -34.929688 89.652344 -32.601562 C 81.503906 -29.109375 72.1875 -27.945312 62.875 -26.78125 C 54.722656 -25.613281 46.574219 -22.121094 39.585938 -17.464844 C 37.257812 -15.136719 36.09375 -11.644531 36.09375 -8.148438 C 36.09375 -4.65625 39.585938 -1.164062 41.914062 0 C 46.574219 2.328125 51.230469 2.328125 55.886719 2.328125 C 119.925781 2.328125 183.960938 3.492188 248 3.492188 C 278.273438 3.492188 309.710938 4.65625 339.980469 1.164062 C 341.144531 1.164062 342.308594 1.164062 343.472656 1.164062 Z M 343.472656 1.164062 "/></g></g></g><g fill="#ffffff" fill-opacity="1"><g transform="translate(5051.725592, 1476.661306)"><g><path d="M 168.828125 -770.78125 C 190.949219 -770.78125 213.070312 -770.78125 236.355469 -770.78125 C 238.6875 -770.78125 241.015625 -770.78125 243.34375 -769.617188 C 254.984375 -766.121094 265.464844 -753.316406 265.464844 -740.507812 C 265.464844 -727.699219 265.464844 -714.890625 265.464844 -702.085938 C 265.464844 -684.621094 265.464844 -668.320312 266.628906 -652.019531 C 266.628906 -634.554688 266.628906 -617.089844 266.628906 -598.460938 C 266.628906 -476.207031 265.464844 -352.789062 265.464844 -230.535156 C 265.464844 -223.550781 265.464844 -216.5625 264.300781 -209.578125 C 263.136719 -197.933594 263.136719 -187.457031 263.136719 -176.976562 C 261.972656 -143.210938 260.808594 -108.28125 259.644531 -74.515625 C 259.644531 -71.023438 259.644531 -67.53125 258.480469 -64.039062 C 256.148438 -54.722656 252.65625 -46.574219 243.34375 -40.75 C 239.851562 -38.421875 235.191406 -36.09375 230.535156 -34.929688 C 222.386719 -32.601562 213.070312 -29.109375 203.757812 -26.78125 C 194.441406 -23.285156 186.292969 -20.957031 176.976562 -17.464844 C 173.484375 -16.300781 171.15625 -13.972656 168.828125 -10.480469 C 166.496094 -6.984375 168.828125 0 173.484375 0 C 176.976562 1.164062 180.46875 2.328125 183.960938 2.328125 C 281.765625 1.164062 379.566406 1.164062 477.371094 0 C 480.863281 0 484.355469 0 487.851562 0 C 492.507812 -1.164062 497.164062 -2.328125 501.820312 -3.492188 C 502.984375 -4.65625 504.152344 -4.65625 505.316406 -5.820312 C 506.480469 -6.984375 507.644531 -9.316406 508.808594 -11.644531 C 509.972656 -12.808594 506.480469 -19.792969 504.152344 -19.792969 C 497.164062 -22.121094 490.179688 -24.449219 483.191406 -25.613281 C 470.386719 -27.945312 458.742188 -33.765625 447.097656 -38.421875 C 443.605469 -40.75 441.277344 -41.914062 437.785156 -44.246094 C 433.128906 -48.902344 429.632812 -53.558594 429.632812 -59.378906 C 429.632812 -90.816406 428.46875 -121.089844 428.46875 -151.363281 C 430.796875 -221.222656 431.960938 -291.078125 430.796875 -360.9375 C 430.796875 -455.25 430.796875 -549.558594 430.796875 -645.03125 C 430.796875 -661.332031 430.796875 -677.632812 431.960938 -693.933594 C 431.960938 -723.042969 431.960938 -723.042969 437.785156 -750.984375 C 438.949219 -757.972656 444.769531 -762.628906 451.757812 -764.957031 C 454.085938 -764.957031 456.414062 -766.121094 458.742188 -766.121094 C 462.234375 -766.121094 465.726562 -766.121094 469.222656 -766.121094 C 489.015625 -766.121094 509.972656 -764.957031 529.765625 -764.957031 C 535.585938 -764.957031 541.410156 -762.628906 547.230469 -761.464844 C 556.542969 -759.136719 564.695312 -755.644531 572.84375 -750.984375 C 576.339844 -749.820312 579.832031 -747.492188 582.160156 -746.328125 C 594.96875 -737.015625 605.445312 -725.371094 613.597656 -711.398438 C 615.925781 -705.578125 619.417969 -699.757812 622.910156 -692.769531 C 629.898438 -681.128906 634.554688 -667.15625 638.046875 -653.183594 C 639.210938 -642.703125 642.703125 -633.390625 646.199219 -622.910156 C 646.199219 -621.746094 647.363281 -620.582031 648.527344 -620.582031 C 649.691406 -618.253906 652.019531 -617.089844 654.347656 -617.089844 C 655.511719 -615.925781 656.675781 -615.925781 657.839844 -615.925781 C 665.992188 -615.925781 671.8125 -620.582031 671.8125 -627.570312 C 672.976562 -645.03125 670.648438 -661.332031 668.320312 -677.632812 C 667.15625 -688.113281 665.992188 -698.59375 665.992188 -709.070312 C 664.828125 -730.027344 663.664062 -752.152344 663.664062 -773.109375 C 662.496094 -780.09375 662.496094 -787.082031 662.496094 -794.066406 C 661.332031 -798.722656 660.167969 -803.378906 657.839844 -808.039062 C 655.511719 -811.53125 653.183594 -812.695312 649.691406 -813.859375 C 645.03125 -815.023438 640.375 -815.023438 635.71875 -815.023438 C 617.089844 -816.1875 597.296875 -816.1875 578.667969 -816.1875 C 472.714844 -815.023438 366.761719 -815.023438 259.644531 -815.023438 C 203.757812 -815.023438 149.03125 -815.023438 93.144531 -813.859375 C 82.667969 -813.859375 72.1875 -813.859375 61.707031 -813.859375 C 57.050781 -812.695312 52.394531 -811.53125 47.738281 -809.203125 C 44.246094 -806.875 40.75 -801.050781 40.75 -797.558594 C 39.585938 -794.066406 39.585938 -790.574219 39.585938 -787.082031 C 38.421875 -773.109375 38.421875 -759.136719 36.09375 -744 C 34.929688 -737.015625 34.929688 -730.027344 34.929688 -723.042969 C 33.765625 -710.234375 33.765625 -697.425781 32.601562 -684.621094 C 32.601562 -669.484375 32.601562 -653.183594 27.945312 -639.210938 C 26.78125 -634.554688 27.945312 -629.898438 29.109375 -625.238281 C 32.601562 -615.925781 41.914062 -613.597656 50.066406 -618.253906 C 51.230469 -618.253906 52.394531 -619.417969 52.394531 -620.582031 C 57.050781 -627.570312 60.542969 -635.71875 60.542969 -643.867188 C 62.875 -661.332031 69.859375 -677.632812 78.007812 -693.933594 C 82.667969 -702.085938 87.324219 -710.234375 91.980469 -718.386719 C 96.636719 -725.371094 101.296875 -731.191406 107.117188 -737.015625 C 112.9375 -741.671875 117.597656 -746.328125 123.417969 -750.984375 C 131.566406 -757.972656 140.882812 -763.792969 151.363281 -766.121094 C 157.183594 -767.285156 163.003906 -769.617188 168.828125 -770.78125 Z M 168.828125 -770.78125 "/></g></g></g></svg>